<svg xmlns="http://www.w3.org/2000/svg" xmlns:xlink="http://www.w3.org/1999/xlink" version="1.1" x="0px" y="0px" viewBox="0 0 512 640" style="enable-background:new 0 0 512 512;" xml:space="preserve">
<g><g><g><g>
<path d="M486.402,265.047c0-1.602-1.067-3.207-2.135-4.277c-1.067-1.064-2.616-2.137-4.815-2.137      c-1.542,0-3.144,1.072-4.217,2.137c-1.067,1.07-2.136,2.676-2.136,4.277c0,2.141,1.068,3.805,2.136,4.814      c1.073,1.127,2.675,1.66,4.217,1.66c2.199,0,3.748-0.533,4.815-1.66C485.335,268.852,486.402,267.188,486.402,265.047z       M490.684,254.297c2.675,2.676,4.218,6.473,4.218,10.75c0,4.34-1.543,8.082-4.218,11.348c-3.207,2.676-6.892,4.281-11.231,4.281      c-3.679,0-7.96-1.605-10.627-4.281v-0.535c-2.617-2.73-4.282-6.473-4.282-10.813c0-4.277,1.665-8.074,4.282-10.75v-0.533      c3.202-2.674,6.948-4.338,10.627-4.338C483.792,249.426,488.01,251.623,490.684,254.297z"/>
<path d="M450.168,114.397c2.141,1.066,3.207,3.799,1.605,5.939c0,1.068-0.539,1.605-1.605,2.139l-16.516,9.148      c-2.136,1.604-4.751,0.533-5.819-1.604s-0.533-4.871,1.602-5.941l9.566-5.883l-9.566-5.402c-2.135-1.605-2.67-4.279-1.602-6.479      c1.068-2.139,3.684-2.67,5.819-1.604L450.168,114.397z"/>
<path d="M418.209,471.663c2.674,0,4.809,2.141,4.809,4.871c0,2.141-2.135,4.277-4.809,4.277H394.8      c-2.669,0-4.274-2.137-4.274-4.277c0-2.73,1.605-4.871,4.274-4.871H418.209z"/>
<path d="M402.823,484.019c2.077,0,4.219,2.199,4.219,4.334c0,2.682-2.142,4.814-4.219,4.814h-50.616      c-2.136,0-4.277-2.133-4.277-4.814c0-2.135,2.142-4.334,4.277-4.334H402.823z"/>
<path d="M395.339,255.367c1.068-1.07,2.67-2.141,3.742-2.674c1.543-0.535,3.145-1.07,4.81-1.07c1.543,0,3.151,0.535,4.752,1.07      c1.605,0.533,2.674,1.07,3.747,2.674l47.401,45.207c1.607,1.068,2.675,2.676,3.742,4.34c1.602,1.602,2.675,3.203,3.15,5.344      v1.072v1.6c0,1.068-0.476,1.66-1.074,2.734c0,0.535-0.475,1.074-1.066,1.607l-12.234,12.889c-1.607,2.137-4.277,2.137-6.359,0      l-59.643-58.1c-2.134-1.607-2.134-4.334-0.592-6.479L395.339,255.367z M402.823,260.77c-0.598,0.539-0.598,0.539-1.073,1.07      l-6.411,7.012l53.763,51.621l8.55-9.143l-1.067-1.072c-0.533-1.068-1.602-2.141-2.674-2.676      c-15.977-15.621-32.493-30.654-47.937-45.742c0-0.531-0.54-0.531-0.54-1.07c-0.533,0-1.067,0-1.543,0      C403.891,260.77,403.3,260.77,402.823,260.77z"/>
<path d="M374.008,417.309v-3.213l-2.67,2.682v4.867h1.603C374.008,421.645,374.008,418.377,374.008,417.309z M363.914,411.961      l11.7-12.357c1.602-2.197,4.276-2.197,6.417,0c0.533,0.533,1.066,1.6,1.066,3.209v14.496c0,2.727,0,13.484-10.157,13.484h-6.358      c-2.135,0-4.275-2.137-4.275-4.277V415.17C362.307,414.096,362.84,412.496,363.914,411.961z"/>
<path d="M269.635,439.941l112.396-119.469c2.142-1.602,4.751-1.602,6.353,0l10.697,9.688c1.543,1.602,1.543,4.334,0,6.477      L286.686,455.506l18.65,18.298l20.735-22.04c1.067-1.072,2.135-1.605,3.208-1.605h26.135c1.55,0,3.684-0.533,4.752-1.604      c1.072-1.6,2.141-3.27,2.141-5.406c0-2.674,2.141-4.281,4.275-4.281h18.656c7.426,0,6.893-8.074,6.893-8.074v-47.346      c0-1.074,0.533-2.674,1.602-3.268c12.774-13.422,25.544-26.854,38.376-40.875l-21.744-20.908l-32.609-31.246L250.977,421.645      L269.635,439.941z M385.715,330.16L272.843,449.09c-1.606,2.135-4.281,2.135-6.416,0.535l-25.009-24.238      c-1.608-2.137-1.608-4.811,0-6.477l115.546-122.617l17.583-18.832c1.603-1.602,4.809-1.602,6.353,0l60.241,58.641      c2.136,1.602,2.136,4.277,0.534,6.416c-13.31,14.018-26.675,28.572-40.458,42.537v45.738c0,0,1.009,17.172-15.979,17.172      h-14.375c-1.073,2.727-2.141,4.867-4.281,7.008c-2.668,2.729-6.949,4.339-11.168,4.339h-24l-22.869,24.174      c-1.665,1.607-4.274,1.607-6.474,0l-25.011-24.174c-2.141-1.609-2.141-4.872,0-6.479l112.396-119.41L385.715,330.16z"/>
<path d="M282.404,487.819c-5.877-2.727-10.634-5.406-12.77-8.076l-0.539-0.533c-6.411-11.824-14.374-17.23-19.72-19.898      c-3.742-2.148-6.358-3.806-7.426-6.479l-2.674-5.877c-2.139,10.208-4.81,20.431-6.95,30.649      c-2.142,7.488-3.743,15.029-4.813,20.436v1.068c0,0.533,0,1.068,0.537,1.602c0.533,0.533,1.067,1.072,1.602,1.072l1.07,0.533      C235,502.315,264.287,493.167,282.404,487.819z M277.061,474.87c1.602,1.664,10.158,5.406,15.978,7.543l4.281,1.605      c1.067,0.539,2.135,1.664,2.669,3.266c0.539,2.141-1.068,4.816-3.208,5.35l-3.742,1.068c-14.909,4.871-55.9,17.23-62.316,17.23      c-1.07,0-2.139,0-3.209,0c-2.613-0.535-4.753-2.141-6.355-4.281c-1.604-2.137-2.675-4.869-2.675-7.543c0-1.068,0-2.135,0-2.668      c2.141-8.088,3.209-14.563,4.813-20.445c3.684-15.082,6.889-29.64,9.563-44.136c0-1.602,1.07-2.668,2.675-3.203      c2.138-1.131,4.813-0.531,5.883,2.137l9.026,18.297c0,0,1.607,1.068,3.209,2.135      C260.012,454.973,269.635,460.378,277.061,474.87z"/>
<path d="M163.591,22.436c-2.611,0.533-4.751-0.537-5.819-3.27c-0.533-2.137,1.067-4.811,3.208-5.346l7.959-2.137      c2.675-1.129,5.346,0.533,5.882,3.207c0.534,2.139-1.073,4.813-3.208,5.346L163.591,22.436z"/>
<path d="M161.515,26.178l2.077,8.078c0.536,2.674-1.01,4.813-3.147,5.408c-2.672,1.066-4.813-0.596-5.88-2.734l-2.141-8.08      c-0.534-2.672,1.07-4.811,3.208-5.881C158.307,22.436,160.98,24.04,161.515,26.178z"/>
<path d="M157.239,11.147c0.533,2.141-0.537,4.811-3.208,5.35c-2.141,0.533-4.814-0.539-5.349-3.209l-2.077-7.545      c-0.536-2.674,0.534-4.873,3.147-5.406c2.138-1.07,4.812,0.533,5.346,3.266L157.239,11.147z"/>
<path d="M152.424,20.833c0.534,2.137-1.067,4.813-3.208,5.346l-8.494,2.139c-2.14,1.127-4.812-0.535-5.348-3.209      c-0.534-2.139,0.537-4.871,3.208-5.404l8.023-2.141C149.216,17.03,151.357,18.1,152.424,20.833z"/>
<path d="M142.327,499.642c0-0.533-0.537-1.602-1.07-2.135c-0.535-0.533-1.068-0.533-2.139-0.533c-0.536,0-1.603,0-2.138,0.533      c-0.534,0.533-0.534,1.602-0.534,2.135c0,1.068,0,1.602,0.534,2.141c0.535,0.533,1.602,1.068,2.138,1.068      c1.071,0,1.604-0.535,2.139-1.068C141.79,501.243,142.327,500.71,142.327,499.642z M147.615,491.034      c2.138,2.133,3.742,5.406,3.742,8.607c0,3.209-1.604,6.475-3.742,8.615c-2.083,2.141-5.288,3.742-8.497,3.742      c-3.208,0-6.416-1.602-8.554-3.742c-2.08-2.141-3.149-5.406-3.149-8.615c0-3.201,1.07-6.475,3.149-8.607      c2.138-2.141,5.347-3.215,8.554-3.215C142.327,487.819,145.532,488.894,147.615,491.034z"/>
<path d="M327.139,177.365v-9.684c0-4.275-1.607-7.545-4.218-10.217c-2.199-2.673-5.883-4.277-9.624-4.277H126.88l-0.534,0.533      c-4.275,0-7.487,1.07-10.158,3.744c-2.616,2.672-4.217,5.941-4.217,10.217v9.684c0,3.744,1.601,7.545,4.217,10.219      c2.671,2.674,5.883,3.742,10.158,3.742h186.95c3.741,0,7.425-1.068,9.624-3.742C325.531,184.91,327.139,181.109,327.139,177.365      z M329.279,150.989c4.275,4.336,6.892,10.218,6.892,16.693v9.684c0,6.477-2.616,12.355-6.892,16.693      c-3.748,4.277-9.624,6.477-15.982,6.477h-186.95c-6.416,0-12.299-2.199-16.516-6.477c-4.276-4.338-6.95-10.217-6.95-16.693      v-9.684c0-6.475,2.674-12.357,6.95-16.693c3.742-3.742,9.566-6.414,15.446-6.414l1.07-0.594h186.95      C319.655,143.981,325.531,146.713,329.279,150.989z"/>
<path d="M196.087,429.191L355.89,259.705V121.942c0-2.676-1.066-5.35-2.609-7.012c-2.142-1.604-4.816-2.674-7.49-2.674H98.663      c-2.674,0-4.813-2.139-4.813-4.811c0-5.939,2.138-10.813,5.346-14.021c3.684-3.742,9.033-5.879,14.376-5.879h247.133      c19.719,0,19.186,18.297,19.186,18.297v140.376l1.606,1.604l12.235-27.447V82.137c0-2.674-1.068-4.811-2.135-5.939      c-2.141-2.139-5.291-2.674-6.956-2.674H110.901c-17.584,0-26.614,7.543-31.426,15.625c-4.278,8.078-4.812,16.098-4.812,17.703      v352.459c0,2.668,1.067,5.344,2.674,6.949c2.138,2.193,4.275,3.262,7.483,3.262h100.1l1.604-6.477      c2.137-10.749,4.812-20.964,8.493-31.718C195.017,430.258,195.553,429.727,196.087,429.191z M188.127,478.144L84.82,478.675      c-5.346,0-10.158-2.141-13.9-5.939c-3.208-3.213-5.285-8.08-5.285-13.424V106.852c0-1.605,0.534-11.824,5.819-22.039      c6.416-10.219,17.584-20.436,39.447-20.436h273.741c3.208,0,9.091,1.066,13.367,5.404c2.615,2.674,4.814,7.012,4.814,12.355      v139.367c0,0.535,0,1.07-0.598,2.139l-14.851,33.861c-0.593,0.535-0.593,0.535-1.068,1.129c-1.665,2.137-4.81,2.137-6.416,0      l-7.483-7.01c-1.069-0.533-1.544-2.197-1.544-3.268V105.842c0,0,0.475-9.209-10.158-9.209H113.572      c-3.208,0-5.88,1.129-7.483,3.27c-1.068,0.533-1.604,1.604-2.142,3.203H345.79c5.349,0,10.1,2.141,13.843,5.408      c3.207,3.742,5.348,8.615,5.348,13.428V261.84c0,1.07-0.533,2.141-1.066,3.207L203.041,435.074      c-3.209,10.211-5.292,19.898-8.024,30.112l-2.135,9.684C192.407,477.069,190.266,478.144,188.127,478.144z"/>
<polygon points="42.702,224.18 45.377,232.791 36.82,234.932 34.146,226.85     "/>
<polygon points="36.82,234.932 38.96,243.543 30.464,246.219 28.327,237.604     "/>
<polygon points="32.069,218.771 34.146,226.85 25.652,229.525 23.515,221.504     "/>
<polygon points="25.652,229.525 28.327,237.604 19.294,240.336 17.098,232.258     "/>
</g></g></g></g>
<text x="0" y="527" fill="#000000" font-size="5px" font-weight="bold" font-family="'Helvetica Neue', Helvetica, Arial-Unicode, Arial, Sans-serif">Created by ibrandify</text>
<text x="0" y="532" fill="#000000" font-size="5px" font-weight="bold" font-family="'Helvetica Neue', Helvetica, Arial-Unicode, Arial, Sans-serif">from the Noun Project</text>
</svg>